<svg viewBox="0 0 86.814697265625 88" height="88" width="86.814697265625" version="1.1" fill="none" xmlns:xlink="http://www.w3.org/1999/xlink" xmlns="http://www.w3.org/2000/svg"><defs><clipPath id="master_svg0_2837_22498"><rect rx="0" height="88" width="86.814697265625" y="0" x="0"></rect></clipPath></defs><g clip-path="url(#master_svg0_2837_22498)"><g><g><path fill-opacity="1" fill="#00E8C2" fill-rule="evenodd" d="M74.2332,87.8806C74.7471,87.9217,75.2611,87.9547,75.7751,87.9918C75.7943,87.9932,76.3936,87.9927,77.1848,87.9921C78.7577,87.9909,81.0889,87.989,81.1269,88C81.8693,87.9424,82.6076,87.8888,83.3501,87.8311C83.5989,87.8105,83.8518,87.7858,84.1006,87.7611C84.6881,87.7034,85.2713,87.6457,85.8546,87.5881C86.0586,87.5674,86.2626,87.5468,86.4624,87.5221C86.5725,87.5098,86.6704,87.4727,86.7317,87.3656C86.9234,87.0484,86.7684,86.5828,86.4176,86.4633C86.2871,86.4139,86.1402,86.3974,85.9974,86.3809C85.4753,86.3232,84.949,86.2903,84.4311,86.1708C83.1299,85.8741,81.9264,85.3551,80.8495,84.5558C80.6293,84.3951,80.4049,84.2263,80.2132,84.0285C79.7075,83.497,79.2057,82.9573,78.7203,82.4053C77.6433,81.1858,76.6236,79.9169,75.6691,78.5944C74.6737,77.2143,73.76,75.7805,72.8627,74.3345C72.2059,73.2757,71.3656,72.3899,70.3417,71.6854C69.4851,71.0922,68.5428,70.676,67.5353,70.4288C66.8948,70.2723,66.2463,70.1734,65.5814,70.1899C64.5616,70.2146,63.5458,70.2394,62.5261,70.2476C59.7359,70.2723,56.9418,70.2805,54.1475,70.297C53.9722,70.297,53.7968,70.3094,53.5969,70.3176C53.6337,70.2064,53.6582,70.1116,53.6907,70.0251C53.8049,69.7079,53.9314,69.3948,54.0374,69.0734C54.3923,68.0064,54.7146,66.9311,54.9553,65.8311C55.1633,64.8877,55.3387,63.936,55.4488,62.9719C55.5508,62.082,55.6406,61.1922,55.6569,60.294C55.6582,60.2046,55.6614,60.1151,55.6646,60.0257C55.6709,59.8477,55.6772,59.6703,55.669,59.4948C55.6569,59.2723,55.7344,59.1157,55.9097,58.9674C56.7092,58.2918,57.4802,57.5832,58.2022,56.821C59.0834,55.894,59.9318,54.9382,60.6987,53.9124C61.8163,52.421,62.8076,50.8513,63.6397,49.1828C63.7743,48.9191,63.9416,48.7008,64.1659,48.5072C65.0429,47.7449,65.8261,46.8962,66.4911,45.9405C67.6413,44.2884,68.5428,42.5045,69.2974,40.6382C69.8073,39.3858,70.2071,38.0922,70.5089,36.7697C70.6477,36.1682,70.7904,35.5667,70.8842,34.9569C71.0026,34.1824,71.0882,33.3996,71.1657,32.6169C71.2147,32.0854,71.2392,31.554,71.2515,31.0225C71.2691,30.3511,71.2469,29.6796,71.2247,29.0082C71.2214,28.9051,71.2179,28.802,71.2147,28.6989C71.182,27.6442,71.1004,26.5978,70.9087,25.5596C70.6599,24.2124,70.2438,22.9146,69.7094,21.654C69.3954,20.9041,68.9956,20.2038,68.5877,19.5034C68.4082,19.1903,68.2043,18.8854,67.9841,18.6011C67.2048,17.5959,66.3279,16.6854,65.41,15.812C64.0966,14.5596,62.6608,13.4678,61.1596,12.4667C59.9358,11.6468,58.7733,10.7528,57.7046,9.74346C56.8398,8.92361,56.0361,8.04196,55.3101,7.09027C55.2776,7.04496,55.249,6.9914,55.2205,6.94196C55.3107,6.87778,55.3845,6.90777,55.4554,6.93654C55.471,6.94286,55.4865,6.94913,55.5019,6.95432C56.6604,7.34571,57.7984,7.79889,58.9201,8.28091C60.6742,9.03485,62.3548,9.93709,63.9783,10.9465C65.1123,11.651,66.2137,12.409,67.2702,13.2247C68.0411,13.8221,68.7957,14.4401,69.5096,15.1034C70.4437,15.9727,71.2963,16.9326,72.1121,17.9131C73.1441,19.1532,74.0946,20.4633,74.9552,21.8352C76.0076,23.5161,76.9376,25.2588,77.7128,27.088C78.7203,29.4611,79.4871,31.9165,80.0093,34.4461C80.2336,35.5502,80.4171,36.6584,80.5355,37.779C80.6537,38.912,80.7149,40.0491,80.7476,41.1861C80.7761,42.1214,80.7517,43.0524,80.6986,43.9835C80.6701,44.4903,80.6455,44.997,80.5925,45.5038C80.4743,46.5873,80.3193,47.6667,80.1275,48.7378C79.8298,50.4064,79.4097,52.042,78.8834,53.6528C78.3776,55.1936,77.7862,56.6974,77.0805,58.1558C76.1912,59.9974,75.1796,61.7689,73.9966,63.4333C73.7805,63.7382,73.6499,64.0678,73.5887,64.4303C73.4785,65.0813,73.6173,65.6786,73.9436,66.2431C73.9558,66.2678,73.9681,66.2843,73.9844,66.3049C74.0823,66.4285,74.221,66.445,74.3271,66.3379C74.3719,66.2966,74.4045,66.2472,74.4412,66.1978C74.7309,65.7858,75.0286,65.3697,75.3141,64.9536C76.0035,63.9483,76.6154,62.8936,77.215,61.8307C78.2267,60.0386,79.0751,58.1723,79.7931,56.2442C80.2581,55,80.6619,53.7311,81.0127,52.4498C81.2738,51.5064,81.4695,50.5465,81.6654,49.5865C81.906,48.4124,82.0896,47.2299,82.2038,46.0352C82.2691,45.3596,82.3344,44.6839,82.367,44.0082C82.4078,43.1595,82.4323,42.315,82.4364,41.4663C82.4446,40.218,82.3915,38.9697,82.2691,37.7296C82.2201,37.2229,82.1753,36.7161,82.1059,36.2135C82.008,35.5213,81.8939,34.8292,81.7754,34.1371C81.5715,32.9217,81.3146,31.7146,80.9761,30.5281C80.4702,28.7566,79.8992,27.0139,79.1731,25.3247C78.6591,24.1382,78.1288,22.9599,77.5169,21.8229C76.7378,20.3727,75.873,18.9802,74.939,17.6288C73.8048,15.9891,72.5525,14.4442,71.1861,12.994C69.073,10.7487,66.748,8.7588,64.1945,7.03258C62.0774,5.59888,59.842,4.39176,57.5088,3.37004C56.4197,2.89625,55.3101,2.47603,54.1843,2.10112C53.0136,1.70974,51.8306,1.36779,50.6273,1.09176C49.9502,0.935207,49.269,0.782772,48.5877,0.663296C47.8698,0.53558,47.1437,0.444944,46.4218,0.346068C45.8752,0.27191,45.3285,0.201872,44.7819,0.156554C44.1864,0.107116,43.5868,0.0947568,42.9871,0.0576781C42.8689,0.0494386,42.7546,0.0205995,42.6363,0L40.0461,0C39.9196,0.0205995,39.7932,0.0494386,39.6626,0.0576781C39.3159,0.0782777,38.9692,0.0782777,38.6224,0.102996C38.1778,0.135955,37.7374,0.173033,37.2967,0.218353C36.7502,0.27191,36.2036,0.333708,35.657,0.407865C35.1348,0.477903,34.6168,0.56854,34.0987,0.659176C33.5562,0.753932,33.0096,0.84045,32.4752,0.968165C31.4187,1.21948,30.3663,1.50786,29.3221,1.82097C27.1234,2.48015,25.0145,3.35356,22.9586,4.37528C20.2705,5.71011,17.7781,7.35805,15.4449,9.24906C14.0335,10.3944,12.6956,11.6221,11.4637,12.9693C10.6805,13.8221,9.90542,14.679,9.18747,15.5895C8.53076,16.4217,7.91072,17.2828,7.31929,18.1644C6.10777,19.9689,5.02676,21.8517,4.10899,23.8292C3.1871,25.815,2.42025,27.8584,1.81244,29.9637C1.35149,31.5663,0.984384,33.1936,0.719277,34.8416C0.543832,35.9169,0.417382,36.9963,0.3276,38.0839C0.246072,39.1098,0.197122,40.1356,0.193032,41.1656C0.193032,41.2113,0.193452,41.2571,0.193818,41.3029C0.19523,41.4631,0.196679,41.6233,0.180802,41.7835C0.115548,42.4715,0.0706263,43.1595,0.0379877,43.8476C0.00130558,44.6716,-0.0231848,45.4914,0.0339365,46.3154C0.0828943,47.0281,0.140031,47.7367,0.201173,48.4495C0.266427,49.1704,0.360284,49.8914,0.494889,50.6041C0.698838,51.6835,0.93953,52.7588,1.2495,53.8135C1.79613,55.6756,2.48956,57.476,3.38291,59.194C4.06414,60.5,4.79836,61.7772,5.66723,62.9678C6.1608,63.6517,6.68701,64.315,7.17243,65.003C8.2697,66.5645,9.44446,68.0641,10.6886,69.506C12.5243,71.6359,14.4618,73.6629,16.5462,75.5457C17.0643,76.0112,17.5742,76.4974,18.133,76.9093C18.8469,77.4367,19.5974,77.9146,20.348,78.3925C21.2699,78.9776,22.2448,79.476,23.2278,79.9498C24.4516,80.539,25.6998,81.0663,26.9929,81.4701C27.9311,81.7626,28.8775,82.0262,29.8279,82.2693C30.8028,82.5206,31.794,82.6936,32.7934,82.8131C33.2707,82.8708,33.7439,82.9285,34.2211,82.9738C34.735,83.0232,35.2491,83.0768,35.763,83.0851C35.9215,83.0877,36.0801,83.0907,36.2388,83.0937C37.3252,83.1144,38.4139,83.1352,39.4995,83.0273C39.9523,82.982,40.4051,82.9409,40.8578,82.8997C40.9884,82.8873,41.123,82.8955,41.2494,82.8585C41.8042,82.7019,42.363,82.5618,42.9015,82.3641C44.5943,81.7502,46.1444,80.8644,47.4946,79.6532C47.9841,79.2124,48.4735,78.7551,48.8937,78.2484C50.6762,76.0978,52.1204,73.7371,53.2298,71.1704C53.2542,71.1086,53.2951,71.055,53.3318,70.9933C53.7724,71.2116,54.1679,71.467,54.5555,71.7266C55.8568,72.6041,56.9377,73.7041,57.8189,75.0101C58.9977,76.7611,60.1847,78.5079,61.3676,80.2547C61.9592,81.124,62.5588,81.985,63.1462,82.8543C63.754,83.7484,64.4515,84.5558,65.2755,85.2521C65.8669,85.7547,66.5154,86.1584,67.2008,86.5127C67.776,86.8094,68.3796,87.0442,68.9997,87.2296C69.9012,87.4974,70.8353,87.5633,71.7613,87.6663C72.1774,87.7117,72.5975,87.7487,73.0135,87.7858C73.4214,87.8187,73.8253,87.8517,74.2332,87.8806ZM52.1244,60.9161C52.2345,60.8708,52.3405,60.8296,52.4915,60.7719C52.4589,60.945,52.4426,61.0727,52.4222,61.2004C51.8103,63.6229,50.8272,65.8805,49.4526,67.9651C48.241,69.8067,46.7849,71.4176,45.0961,72.8142C44.0273,73.6959,42.8811,74.4622,41.6614,75.1214C39.932,76.0566,38.1045,76.724,36.1954,77.173C35.5183,77.3296,34.833,77.4367,34.1437,77.5191C33.2952,77.6221,32.4508,77.7045,31.5983,77.7003C30.9129,77.6962,30.2318,77.6468,29.5505,77.6015C28.9305,77.5603,28.3145,77.4779,27.6986,77.3666C26.8746,77.2184,26.0629,77.0164,25.2593,76.7775C24.4109,76.5221,23.5746,76.2296,22.7588,75.8835C21.894,75.521,21.0618,75.0966,20.242,74.6434C18.953,73.9307,17.7537,73.0903,16.6115,72.1674C15.7876,71.5,15.0125,70.7749,14.2864,70.0004C14.262,69.9756,14.2457,69.9427,14.2008,69.8768C14.2824,69.8933,14.3354,69.8974,14.3803,69.9139C14.9962,70.1363,15.6122,70.3794,16.2363,70.5854C17.0562,70.8573,17.8965,71.0427,18.749,71.1869C19.7932,71.3641,20.8416,71.4423,21.8981,71.43C22.461,71.4218,23.0199,71.3641,23.5828,71.327C24.5047,71.2652,25.4102,71.0839,26.3036,70.8491C27.6252,70.4989,28.8408,69.9097,29.9544,69.1146C31.3862,68.0888,32.5243,66.7951,33.3727,65.2461C33.699,64.6528,33.9723,64.0307,34.2497,63.4168C34.935,61.909,35.4449,60.3352,35.8487,58.7243C36.1954,57.3483,36.4239,55.9558,36.5544,54.5427C36.6238,53.797,36.6972,53.0472,36.6972,52.2974C36.6931,50.9049,36.4606,49.5535,35.9956,48.2434C35.6366,47.2341,35.1634,46.2907,34.5475,45.4172C33.6542,44.1525,32.4345,43.4067,30.9171,43.1637C30.5989,43.1142,30.2726,43.106,29.9503,43.1184C29.5342,43.1348,29.1141,43.1801,28.6981,43.2213C28.3186,43.2584,27.9393,43.3161,27.5558,43.3408C26.2873,43.4273,25.0187,43.4479,23.746,43.4232C22.9954,43.4067,22.3386,43.1513,21.7432,42.7187C20.7968,42.0307,20.2706,41.0832,20.0992,39.9296C20.0788,39.8019,20.087,39.6618,20.1074,39.5341C20.3114,38.2981,20.7111,37.124,21.2699,36.0034C21.7798,34.9817,22.408,34.0423,23.179,33.2019C24.6434,31.5993,26.1568,30.0461,27.6823,28.5052C29.4526,26.7172,31.2516,24.9539,33.0708,23.2154C33.9234,22.3996,34.7841,21.5921,35.6489,20.7888C36.2404,20.2367,36.8522,19.7135,37.4437,19.1656C39.0509,17.6783,40.4907,16.0468,41.7349,14.2382C42.0287,13.8097,42.306,13.373,42.6038,12.9487C42.9873,12.4008,43.2361,11.7869,43.44,11.1524C43.8356,9.91236,43.9539,8.64756,43.7867,7.35394C43.6848,6.59176,43.4726,5.86255,43.1871,5.15393C43.1503,5.0633,43.1177,4.97678,43.0729,4.86143C43.5631,4.81341,44.0361,4.84628,44.5043,4.87881C44.6789,4.89095,44.8528,4.90303,45.0267,4.91087C45.6835,4.93558,46.3402,4.99326,46.997,5.0633C47.6374,5.12922,48.2778,5.21573,48.9182,5.31873C49.5586,5.42173,50.1949,5.53708,50.8273,5.66892C51.4718,5.80487,52.1122,5.95731,52.7485,6.11798C53.3727,6.27454,53.9968,6.43933,54.6249,6.64944C54.5801,6.88839,54.5433,7.10263,54.4985,7.31274C54.2293,8.53633,54.1436,9.77641,54.1884,11.0288C54.2211,11.9228,54.3476,12.8127,54.5393,13.6861C54.5964,13.9622,54.7309,14.23,54.8493,14.4936C55.1715,15.227,55.5713,15.9191,56.0893,16.5288C56.6074,17.1386,57.1825,17.6783,57.8433,18.1315C59.2669,19.112,60.7273,20.0431,62.1223,21.0689C62.4976,21.3491,62.8811,21.6169,63.2604,21.8929C64.2966,22.6468,65.2184,23.5244,66.0302,24.5213C66.5401,25.1476,67.001,25.8109,67.4007,26.5195C67.4782,26.6596,67.5191,26.8038,67.5354,26.9644C67.6251,27.7719,67.6251,28.5835,67.5354,29.391C67.4211,30.4169,67.1846,31.4139,66.7644,32.3614C66.7562,32.382,66.7358,32.3985,66.7195,32.4232C66.6651,32.4117,66.663,32.3717,66.6609,32.3332C66.66,32.3169,66.6592,32.3008,66.6543,32.2873C66.6338,32.2296,66.6216,32.1719,66.6135,32.1101C66.4993,31.2861,66.234,30.5116,65.8548,29.7783C65.5774,29.2427,65.2143,28.7607,64.8064,28.3116C64.2884,27.7431,63.6765,27.2981,63.0239,26.9109C62.8322,26.7955,62.6037,26.7378,62.3875,26.6719C61.5146,26.4041,60.6213,26.33,59.7197,26.4288C59.1609,26.4906,58.6143,26.6348,58.0881,26.8449C58.0351,26.8655,57.982,26.8944,57.929,26.9232C56.8848,27.5536,55.9344,28.3075,55.1062,29.2098C54.7065,29.6464,54.3557,30.1243,54.0293,30.6187C53.1401,31.9495,52.5813,33.4161,52.2672,34.9899C52.0306,36.1846,51.896,37.3835,51.8878,38.5948C51.8838,39.3487,51.9449,40.0944,52.0795,40.8359C52.2264,41.6723,52.4303,42.4921,52.7118,43.2914C53.0381,44.2184,53.4582,45.1,53.9477,45.9487C54.1068,46.2289,54.27,46.5131,54.4536,46.7809C54.9309,47.473,55.5019,48.0745,56.2076,48.5318C56.3096,48.5936,56.4033,48.6678,56.5012,48.7337C56.3178,49.1003,55.661,49.7843,55.2817,50.0026C55.2572,49.9449,55.2327,49.8955,55.2123,49.8419C54.7269,48.5648,53.9355,47.5183,52.8871,46.6696C52.2468,46.1506,51.5289,45.7715,50.7497,45.5038C49.938,45.2277,49.1099,45.0629,48.2492,45.1C47.0133,45.1536,45.8711,45.4955,44.8676,46.2536C44.2761,46.6985,43.7622,47.2217,43.3583,47.8438C43.0606,48.3011,42.8485,48.8038,42.6486,49.3105C42.0938,50.7277,41.8694,52.2026,41.9144,53.7187C41.9714,55.6262,42.5425,57.3772,43.5174,59.0004C43.6602,59.2434,43.8887,59.4124,44.0926,59.5937C44.8105,60.2281,45.6182,60.7225,46.5115,61.0644C46.9846,61.2457,47.4742,61.3569,47.9719,61.4393C48.8937,61.5918,49.8115,61.5382,50.7253,61.3652C51.2066,61.2745,51.6675,61.1015,52.1244,60.9161ZM32.9483,52.0378C32.9933,52.0749,33.0382,52.1161,33.1156,52.182C33.0504,52.4787,32.9933,52.7506,32.9525,53.0142C32.5405,54.658,31.8593,56.1865,30.9334,57.5996C30.403,58.4071,29.7952,59.157,29.1222,59.8532C28.0413,60.9697,26.8216,61.8966,25.4633,62.6423C25.1124,62.836,24.729,62.9266,24.3496,63.0378C23.3543,63.3303,22.3427,63.4869,21.3107,63.5611C20.4948,63.6229,19.6831,63.6146,18.8713,63.5404C16.7706,63.3468,14.78,62.7701,12.924,61.7566C11.9083,61.2045,10.9579,60.5618,10.0972,59.7749C8.81223,58.6008,7.65376,57.3112,6.65439,55.8858C6.02217,54.9876,5.47143,54.036,4.9697,53.0554C4.21094,51.5764,3.6358,50.0274,3.2075,48.4247C2.96278,47.5019,2.78735,46.5625,2.66095,45.615C2.56709,44.9187,2.51817,44.2184,2.47322,43.518C2.4651,43.4109,2.4651,43.2996,2.47322,43.1925C2.53034,42.5045,2.58337,41.8165,2.65276,41.1326C2.79961,39.6865,3.05658,38.257,3.35843,36.8397C3.7011,35.2289,4.14976,33.6468,4.69643,32.0978C5.2226,30.6187,5.79775,29.1562,6.49117,27.7472C7.09086,26.5236,7.73937,25.3247,8.45735,24.1629C9.66477,22.2101,11.019,20.3603,12.5243,18.63C13.903,17.048,15.4041,15.5895,17.0153,14.2423C18.8469,12.7098,20.8008,11.3584,22.8648,10.1637C24.7575,9.0678,26.7359,8.14908,28.7877,7.39103C30.4601,6.77305,32.1693,6.26219,33.9111,5.86256C34.8901,5.64009,35.8772,5.45058,36.8726,5.30226C37.5456,5.20338,38.2268,5.14571,38.9039,5.05507C39.9278,4.92324,40.9598,4.93148,41.9877,4.86144C42.0637,4.85596,42.1396,4.85959,42.2288,4.86384C42.2737,4.86599,42.3219,4.8683,42.3753,4.86968C42.2937,4.99739,42.2406,5.08391,42.1795,5.17043C41.3881,6.29927,40.5274,7.37043,39.6504,8.42923C38.5001,9.8135,37.2314,11.0865,35.9588,12.3513Q33.2788,15.0086,30.5131,17.5794C29.5015,18.5229,28.4695,19.4498,27.4375,20.3727C25.712,21.9176,24.0519,23.5244,22.4936,25.2382C22.0857,25.6831,21.69,26.1322,21.2984,26.5936C21.119,26.8038,20.968,27.0386,20.809,27.2652C20.2011,28.1262,19.6627,29.0285,19.2262,29.9843C18.6062,31.3397,18.1166,32.7405,17.8312,34.2071C17.6843,34.9693,17.5538,35.7315,17.5212,36.506C17.4599,37.9315,17.4029,39.361,17.5252,40.7865C17.5905,41.557,17.6394,42.3315,17.7414,43.0977C17.8923,44.2596,18.1412,45.4049,18.4022,46.5502C18.5246,47.0899,18.7326,47.5802,19.0141,48.0498C19.9278,49.5742,21.2332,50.5959,22.8934,51.1685C23.1503,51.2551,23.4155,51.3251,23.6929,51.3581C24.7901,51.4981,25.8915,51.5146,26.9929,51.4981C28.0249,51.4817,29.0488,51.3622,30.0686,51.2221C31.0557,51.0903,31.9735,51.2798,32.7811,51.9019C32.8383,51.9472,32.8913,51.9925,32.9483,52.0378ZM49.4691,20.2656C49.2651,20.2162,49.0733,20.1626,48.8776,20.1214C47.0298,19.7218,45.1778,19.3263,43.33,18.9308C43.224,18.9102,43.1179,18.8896,43.0158,18.8566C42.8486,18.8072,42.7834,18.7042,42.8201,18.527C42.8854,18.1809,42.9588,17.839,43.0281,17.497C43.4319,15.5442,43.8317,13.5914,44.2355,11.6386C44.256,11.5315,44.2804,11.4244,44.313,11.3214C44.3457,11.2143,44.4191,11.169,44.5333,11.169C44.6027,11.169,44.6761,11.1813,44.7455,11.1978C46.8503,11.651,48.9551,12.1042,51.06,12.5615C51.4393,12.6439,51.5167,12.6645,51.4189,13.1259C51.1374,14.4607,50.8641,15.7997,50.5908,17.1386C50.4195,17.9791,50.244,18.8195,50.0687,19.66C50.0565,19.73,50.0565,19.8,50.0483,19.8783C50.1013,19.903,50.1421,19.936,50.183,19.9442C52.2307,20.3851,54.2784,20.8259,56.322,21.2667C56.6891,21.345,56.734,21.4068,56.6565,21.7899C56.4933,22.6057,56.322,23.4255,56.1506,24.2412C55.8488,25.7079,55.5429,27.1746,55.237,28.6454C55.2288,28.6824,55.2288,28.7195,55.2206,28.7525C55.1717,28.9544,55.0941,29.0161,54.8861,28.9791C54.5803,28.9255,54.2743,28.8596,53.9724,28.7937C52.1695,28.4105,50.3665,28.0233,48.5636,27.6401C48.4697,27.6195,48.3758,27.5989,48.282,27.5742C48.0659,27.5165,48.0088,27.4341,48.0496,27.2034C48.0944,26.9562,48.1515,26.7049,48.2046,26.4577C48.6205,24.4472,49.0367,22.4326,49.4487,20.4221C49.4609,20.3851,49.4609,20.3356,49.4691,20.2656ZM38.9815,35.3936C38.953,35.4678,38.9204,35.5337,38.9081,35.5997C38.4961,37.6142,38.0842,39.6247,37.6722,41.6394C37.6232,41.8742,37.5784,42.1131,37.5253,42.348C37.4804,42.5498,37.3948,42.6075,37.1867,42.5663C36.7503,42.4839,36.3179,42.385,35.8855,42.2944C34.364,41.9689,32.8425,41.6394,31.321,41.3139C31.0762,41.2603,30.8274,41.215,30.5827,41.1573C30.3624,41.1038,30.3012,41.0214,30.342,40.7907C30.4113,40.3993,30.497,40.0079,30.5786,39.6165C30.9783,37.7008,31.3821,35.785,31.7778,33.8652C31.8635,33.4532,31.9043,33.3996,32.3367,33.4944C34.3028,33.9146,36.269,34.339,38.2351,34.7592C38.3412,34.7798,38.4472,34.7922,38.5737,34.8128C38.6063,34.7221,38.6471,34.6356,38.6634,34.5491C38.9612,33.1154,39.2508,31.6858,39.5445,30.2521C39.6954,29.5064,39.8463,28.7607,40.0054,28.015C40.083,27.6442,40.1523,27.5989,40.5235,27.6813C41.6697,27.9285,42.8159,28.1757,43.9621,28.427C44.9085,28.633,45.8549,28.839,46.8053,29.045C46.8869,29.0614,46.9685,29.0779,47.0501,29.1068C47.1846,29.1562,47.2377,29.2468,47.2091,29.391C47.1725,29.6053,47.1276,29.8195,47.0827,30.0296C46.6503,32.1266,46.2179,34.2195,45.7896,36.3165C45.7733,36.3989,45.7529,36.4813,45.7325,36.5637C45.6836,36.745,45.6061,36.8027,45.4143,36.7656C44.9901,36.6873,44.57,36.5966,44.1498,36.506C42.5345,36.1558,40.9232,35.8015,39.3079,35.4513C39.2059,35.4225,39.0998,35.4101,38.9815,35.3936ZM63.7173,33.0124C63.7499,33.5068,63.7947,34.0011,63.8355,34.4955C63.8233,35.7686,63.6153,37.0004,63.1665,38.1869C63.0442,38.5124,62.93,38.8461,62.7178,39.1303C62.2202,39.7978,61.6655,40.4157,60.9842,40.906C60.2459,41.4375,59.4505,41.8454,58.5775,42.0967C58.2226,42.1996,57.8636,42.2862,57.4843,42.2738C56.8439,42.2532,56.2973,42.0143,55.8282,41.5858C55.7099,41.4787,55.6365,41.3468,55.6039,41.1861C55.4447,40.3498,55.4162,39.5094,55.4937,38.6607C55.6202,37.2929,56.0852,36.0528,56.7949,34.8952C57.2641,34.1289,57.8637,33.4697,58.5449,32.8888C58.8957,32.5921,59.2791,32.345,59.6626,32.0978C59.9481,31.9124,60.2703,31.8176,60.6049,31.764C61.1922,31.6693,61.7755,31.6693,62.3426,31.8753C62.7586,32.0277,63.1462,32.242,63.4847,32.5427C63.6275,32.6704,63.705,32.8187,63.7173,33.0124Z"></path></g></g></g></svg>