<svg viewBox="0 0 272 88" height="88" width="272" version="1.1" fill="none" xmlns:xlink="http://www.w3.org/1999/xlink" xmlns="http://www.w3.org/2000/svg"><g><path fill-opacity="1" fill="#FFFFFF" fill-rule="evenodd" d="M159.237,87.9918C158.722,87.9547,158.209,87.9217,157.695,87.8806C157.287,87.8517,156.883,87.8187,156.475,87.7858C156.059,87.7487,155.639,87.7117,155.223,87.6663C154.297,87.5633,153.363,87.4974,152.461,87.2296C151.841,87.0442,151.237,86.8094,150.662,86.5127C149.977,86.1584,149.328,85.7547,148.737,85.2521C147.913,84.5558,147.215,83.7484,146.608,82.8543C146.02,81.985,145.421,81.124,144.829,80.2547C143.646,78.5079,142.459,76.7611,141.28,75.0101C140.399,73.7041,139.318,72.6041,138.017,71.7266C137.629,71.467,137.234,71.2116,136.793,70.9933C136.756,71.055,136.716,71.1086,136.691,71.1704C135.582,73.7371,134.138,76.0978,132.355,78.2484C131.935,78.7551,131.445,79.2124,130.956,79.6532C129.606,80.8644,128.056,81.7502,126.363,82.3641C125.824,82.5618,125.266,82.7019,124.711,82.8585C124.584,82.8955,124.45,82.8873,124.319,82.8997C123.866,82.9409,123.414,82.982,122.961,83.0273C121.875,83.1352,120.787,83.1144,119.7,83.0937C119.542,83.0907,119.383,83.0877,119.224,83.0851C118.71,83.0768,118.196,83.0232,117.682,82.9738C117.205,82.9285,116.732,82.8708,116.255,82.8131C115.255,82.6936,114.264,82.5206,113.289,82.2693C112.339,82.0262,111.392,81.7626,110.454,81.4701C109.161,81.0663,107.913,80.539,106.689,79.9498C105.706,79.476,104.731,78.9776,103.809,78.3925C103.059,77.9146,102.308,77.4367,101.594,76.9093C101.036,76.4974,100.526,76.0112,100.008,75.5457C97.9232,73.6629,95.9856,71.6359,94.15,69.506C92.9058,68.0641,91.7311,66.5645,90.6338,65.003C90.1484,64.315,89.6222,63.6517,89.1286,62.9678C88.2597,61.7772,87.5255,60.5,86.8443,59.194C85.9509,57.476,85.2575,55.6756,84.7109,53.8135C84.4009,52.7588,84.1602,51.6835,83.9563,50.6041C83.8217,49.8914,83.7278,49.1704,83.6625,48.4495C83.6014,47.7367,83.5443,47.0281,83.4953,46.3154C83.4382,45.4914,83.4627,44.6716,83.4994,43.8476C83.532,43.1595,83.5769,42.4715,83.6422,41.7835C83.658,41.6236,83.6566,41.4637,83.6552,41.3037L83.6552,41.3029C83.6548,41.2571,83.6544,41.2113,83.6544,41.1656C83.6585,40.1356,83.7074,39.1098,83.789,38.0839C83.8788,36.9963,84.0052,35.9169,84.1806,34.8416C84.4458,33.1936,84.8129,31.5663,85.2738,29.9637C85.8816,27.8584,86.6485,25.815,87.5704,23.8292C88.4881,21.8517,89.5691,19.9689,90.7807,18.1644C91.3721,17.2828,91.9921,16.4217,92.6488,15.5895C93.3668,14.679,94.1419,13.8221,94.925,12.9693C96.1569,11.6221,97.4948,10.3944,98.9062,9.24906C101.239,7.35805,103.732,5.71011,106.42,4.37528C108.476,3.35356,110.585,2.48015,112.783,1.82097C113.828,1.50786,114.88,1.21948,115.937,0.968165C116.471,0.84045,117.018,0.753932,117.56,0.659176C118.078,0.56854,118.596,0.477903,119.118,0.407865C119.665,0.333708,120.212,0.27191,120.758,0.218353C121.199,0.173033,121.639,0.135955,122.084,0.102996C122.431,0.0782777,122.777,0.0782777,123.124,0.0576781C123.255,0.0494386,123.381,0.0205995,123.507,0L126.098,0C126.216,0.0205995,126.33,0.0494386,126.449,0.0576781C127.048,0.0947568,127.648,0.107116,128.243,0.156554C128.79,0.201872,129.337,0.27191,129.883,0.346068C130.605,0.444944,131.331,0.53558,132.049,0.663296C132.73,0.782772,133.412,0.935207,134.089,1.09176C135.292,1.36779,136.475,1.70974,137.646,2.10112C138.771,2.47603,139.881,2.89625,140.97,3.37004C143.303,4.39176,145.539,5.59888,147.656,7.03258C150.209,8.7588,152.534,10.7487,154.647,12.994C156.014,14.4442,157.266,15.9891,158.4,17.6288C159.334,18.9802,160.199,20.3727,160.978,21.8229C161.59,22.9599,162.12,24.1382,162.634,25.3247C163.361,27.0139,163.932,28.7566,164.437,30.5281C164.776,31.7146,165.033,32.9217,165.237,34.1371C165.355,34.8292,165.469,35.5213,165.567,36.2135C165.637,36.7161,165.681,37.2229,165.73,37.7296C165.853,38.9697,165.906,40.218,165.898,41.4663C165.894,42.315,165.869,43.1595,165.828,44.0082C165.796,44.6839,165.73,45.3596,165.665,46.0352C165.551,47.2299,165.367,48.4124,165.127,49.5865C164.931,50.5465,164.735,51.5064,164.474,52.4498C164.123,53.7311,163.719,55,163.254,56.2442C162.536,58.1723,161.688,60.0386,160.676,61.8307C160.077,62.8936,159.465,63.9483,158.775,64.9536C158.49,65.3697,158.192,65.7858,157.903,66.1978C157.866,66.2472,157.833,66.2966,157.788,66.3379C157.682,66.445,157.544,66.4285,157.446,66.3049C157.429,66.2843,157.417,66.2678,157.405,66.2431C157.079,65.6786,156.94,65.0813,157.05,64.4303C157.111,64.0678,157.242,63.7382,157.458,63.4333C158.641,61.7689,159.653,59.9974,160.542,58.1558C161.248,56.6974,161.839,55.1936,162.345,53.6528C162.871,52.042,163.291,50.4064,163.589,48.7378C163.781,47.6667,163.936,46.5873,164.054,45.5038C164.107,44.997,164.131,44.4903,164.16,43.9835C164.213,43.0524,164.237,42.1214,164.209,41.1861C164.176,40.0491,164.115,38.912,163.997,37.779C163.878,36.6584,163.695,35.5502,163.471,34.4461C162.948,31.9165,162.182,29.4611,161.174,27.088C160.399,25.2588,159.469,23.5161,158.417,21.8352C157.556,20.4633,156.605,19.1532,155.573,17.9131C154.758,16.9326,153.905,15.9727,152.971,15.1034C152.257,14.4401,151.503,13.8221,150.732,13.2247C149.675,12.409,148.574,11.651,147.44,10.9465C145.816,9.93709,144.136,9.03485,142.382,8.28091C141.26,7.79889,140.122,7.34571,138.963,6.95432C138.948,6.94913,138.932,6.94286,138.917,6.93654C138.846,6.90776,138.772,6.87779,138.682,6.94196C138.71,6.9914,138.739,7.04496,138.771,7.09027C139.498,8.04196,140.301,8.92361,141.166,9.74346C142.235,10.7528,143.397,11.6468,144.621,12.4667C146.122,13.4678,147.558,14.5596,148.871,15.812C149.789,16.6854,150.666,17.5959,151.445,18.6011C151.666,18.8854,151.87,19.1903,152.049,19.5034C152.457,20.2038,152.857,20.9041,153.171,21.654C153.705,22.9146,154.121,24.2124,154.37,25.5596C154.562,26.5978,154.643,27.6442,154.676,28.6989C154.679,28.802,154.683,28.9051,154.686,29.0082C154.708,29.6796,154.73,30.3511,154.713,31.0225C154.701,31.554,154.676,32.0854,154.627,32.6169C154.55,33.3996,154.464,34.1824,154.346,34.9569C154.252,35.5667,154.109,36.1682,153.97,36.7697C153.669,38.0922,153.269,39.3858,152.759,40.6382C152.004,42.5045,151.103,44.2884,149.952,45.9405C149.287,46.8962,148.504,47.7449,147.627,48.5072C147.403,48.7008,147.236,48.9191,147.101,49.1828C146.269,50.8513,145.278,52.421,144.16,53.9124C143.393,54.9382,142.545,55.894,141.664,56.821C140.942,57.5832,140.171,58.2918,139.371,58.9674C139.196,59.1157,139.118,59.2723,139.13,59.4948C139.139,59.6703,139.132,59.8477,139.126,60.0257C139.123,60.1151,139.12,60.2046,139.118,60.294C139.102,61.1922,139.012,62.082,138.91,62.9719C138.8,63.936,138.625,64.8877,138.417,65.8311C138.176,66.9311,137.854,68.0064,137.499,69.0734C137.393,69.3948,137.266,69.7079,137.152,70.0251C137.12,70.1116,137.095,70.2064,137.058,70.3176C137.258,70.3094,137.434,70.297,137.609,70.297C140.403,70.2805,143.197,70.2723,145.987,70.2476C147.007,70.2394,148.023,70.2146,149.043,70.1899C149.708,70.1734,150.356,70.2723,150.997,70.4288C152.004,70.676,152.946,71.0922,153.803,71.6854C154.827,72.3899,155.667,73.2757,156.324,74.3345C157.221,75.7805,158.135,77.2143,159.13,78.5944C160.085,79.9169,161.105,81.1858,162.182,82.4053C162.667,82.9573,163.169,83.497,163.675,84.0285C163.866,84.2263,164.091,84.3951,164.311,84.5558C165.388,85.3551,166.591,85.8741,167.892,86.1708C168.41,86.2903,168.937,86.3232,169.459,86.3809C169.602,86.3974,169.748,86.4139,169.879,86.4633C170.23,86.5828,170.385,87.0484,170.193,87.3656C170.132,87.4727,170.034,87.5098,169.924,87.5221C169.724,87.5468,169.52,87.5674,169.316,87.5881C168.733,87.6457,168.149,87.7034,167.562,87.7611C167.313,87.7858,167.06,87.8105,166.811,87.8311C166.069,87.8888,165.331,87.9424,164.588,88C164.55,87.989,162.219,87.9909,160.646,87.9921L160.609,87.9921C159.836,87.9927,159.255,87.9931,159.237,87.9918ZM135.953,60.7719C135.802,60.8296,135.696,60.8708,135.586,60.9161C135.129,61.1015,134.668,61.2745,134.187,61.3652C133.273,61.5382,132.355,61.5918,131.433,61.4393C130.936,61.3569,130.446,61.2457,129.973,61.0644C129.08,60.7225,128.272,60.2281,127.554,59.5937C127.35,59.4124,127.122,59.2434,126.979,59.0004C126.004,57.3772,125.433,55.6262,125.376,53.7187C125.331,52.2026,125.555,50.7277,126.11,49.3105C126.31,48.8038,126.522,48.3011,126.82,47.8438C127.224,47.2217,127.738,46.6985,128.329,46.2536C129.332,45.4955,130.475,45.1536,131.711,45.1C132.571,45.0629,133.399,45.2277,134.211,45.5038C134.99,45.7715,135.708,46.1506,136.348,46.6696C137.397,47.5183,138.188,48.5648,138.674,49.8419C138.694,49.8955,138.719,49.9449,138.743,50.0026C139.122,49.7843,139.779,49.1003,139.963,48.7337C139.865,48.6678,139.771,48.5936,139.669,48.5318C138.963,48.0745,138.392,47.473,137.915,46.7809C137.731,46.5131,137.568,46.2289,137.409,45.9487C136.92,45.1,136.499,44.2184,136.173,43.2914C135.892,42.4921,135.688,41.6723,135.541,40.8359C135.406,40.0944,135.345,39.3487,135.349,38.5948C135.357,37.3835,135.492,36.1846,135.729,34.9899C136.043,33.4161,136.602,31.9495,137.491,30.6187C137.817,30.1243,138.168,29.6464,138.568,29.2098C139.396,28.3075,140.346,27.5536,141.39,26.9232C141.443,26.8944,141.496,26.8655,141.549,26.8449C142.076,26.6348,142.622,26.4906,143.181,26.4288C144.083,26.33,144.976,26.4041,145.849,26.6719C146.065,26.7378,146.294,26.7955,146.485,26.9109C147.138,27.2981,147.75,27.7431,148.268,28.3116C148.676,28.7607,149.039,29.2427,149.316,29.7783C149.695,30.5116,149.961,31.2861,150.075,32.1101C150.083,32.1719,150.095,32.2296,150.116,32.2873C150.121,32.3008,150.121,32.3169,150.122,32.3332C150.124,32.3717,150.126,32.4117,150.181,32.4232C150.197,32.3985,150.218,32.382,150.226,32.3614C150.646,31.4139,150.883,30.4169,150.997,29.391C151.086,28.5835,151.086,27.7719,150.997,26.9644C150.98,26.8038,150.94,26.6596,150.862,26.5195C150.462,25.8109,150.001,25.1476,149.492,24.5213C148.68,23.5244,147.758,22.6468,146.722,21.8929C146.342,21.6169,145.959,21.3491,145.584,21.0689C144.189,20.0431,142.728,19.112,141.305,18.1315C140.644,17.6783,140.069,17.1386,139.551,16.5288C139.033,15.9191,138.633,15.227,138.311,14.4936C138.192,14.23,138.058,13.9622,138.001,13.6861C137.809,12.8127,137.682,11.9228,137.65,11.0288C137.605,9.77641,137.691,8.53633,137.96,7.31274C138.005,7.10263,138.041,6.88839,138.086,6.64944C137.458,6.43933,136.834,6.27454,136.21,6.11798C135.574,5.95731,134.933,5.80487,134.289,5.66892C133.656,5.53708,133.02,5.42173,132.38,5.31873C131.739,5.21573,131.099,5.12922,130.458,5.0633C129.802,4.99326,129.145,4.93558,128.488,4.91087C128.314,4.90303,128.14,4.89095,127.966,4.87881C127.497,4.84628,127.024,4.81341,126.534,4.86143C126.579,4.97678,126.612,5.0633,126.648,5.15393C126.934,5.86255,127.146,6.59176,127.248,7.35394C127.415,8.64756,127.297,9.91236,126.901,11.1524C126.697,11.7869,126.449,12.4008,126.065,12.9487C125.767,13.373,125.49,13.8097,125.196,14.2382C123.952,16.0468,122.512,17.6783,120.905,19.1656C120.314,19.7135,119.702,20.2367,119.11,20.7888C118.245,21.5921,117.385,22.3996,116.532,23.2154C114.713,24.9539,112.914,26.7172,111.144,28.5052C109.618,30.0461,108.105,31.5993,106.64,33.2019C105.869,34.0423,105.241,34.9817,104.731,36.0034C104.172,37.124,103.773,38.2981,103.569,39.5341C103.548,39.6618,103.54,39.8019,103.561,39.9296C103.732,41.0832,104.258,42.0307,105.205,42.7187C105.8,43.1513,106.457,43.4067,107.207,43.4232C108.48,43.4479,109.749,43.4273,111.017,43.3408C111.401,43.3161,111.78,43.2584,112.159,43.2213C112.576,43.1801,112.996,43.1348,113.412,43.1184C113.734,43.106,114.06,43.1142,114.378,43.1637C115.896,43.4067,117.116,44.1525,118.009,45.4172C118.625,46.2907,119.098,47.2341,119.457,48.2434C119.922,49.5535,120.155,50.9049,120.159,52.2974C120.159,53.0472,120.085,53.797,120.016,54.5427C119.885,55.9558,119.657,57.3483,119.31,58.7243C118.906,60.3352,118.396,61.909,117.711,63.4168C117.434,64.0307,117.16,64.6528,116.834,65.2461C115.986,66.7951,114.848,68.0888,113.416,69.1146C112.302,69.9097,111.087,70.4989,109.765,70.8491C108.872,71.0839,107.966,71.2652,107.044,71.327C106.481,71.3641,105.922,71.4218,105.359,71.43C104.303,71.4423,103.255,71.3641,102.21,71.1869C101.358,71.0427,100.518,70.8573,99.6976,70.5854C99.0735,70.3794,98.4576,70.1363,97.8417,69.9139C97.7968,69.8974,97.7437,69.8933,97.6622,69.8768C97.707,69.9427,97.7233,69.9756,97.7478,70.0004C98.4739,70.7749,99.2489,71.5,100.073,72.1674C101.215,73.0903,102.414,73.9307,103.703,74.6434C104.523,75.0966,105.355,75.521,106.22,75.8835C107.036,76.2296,107.872,76.5221,108.721,76.7775C109.524,77.0164,110.336,77.2184,111.16,77.3666C111.776,77.4779,112.392,77.5603,113.012,77.6015C113.693,77.6468,114.374,77.6962,115.06,77.7003C115.912,77.7045,116.757,77.6221,117.605,77.5191C118.294,77.4367,118.98,77.3296,119.657,77.173C121.566,76.724,123.393,76.0566,125.123,75.1214C126.342,74.4622,127.489,73.6959,128.557,72.8142C130.246,71.4176,131.702,69.8067,132.914,67.9651C134.289,65.8805,135.272,63.6229,135.884,61.2004C135.904,61.0727,135.92,60.945,135.953,60.7719ZM116.577,52.182C116.5,52.1161,116.455,52.0749,116.41,52.0378C116.353,51.9925,116.3,51.9472,116.243,51.9019C115.435,51.2798,114.517,51.0903,113.53,51.2221C112.51,51.3622,111.486,51.4817,110.454,51.4981C109.353,51.5146,108.251,51.4981,107.154,51.3581C106.877,51.3251,106.612,51.2551,106.355,51.1685C104.695,50.5959,103.389,49.5742,102.476,48.0498C102.194,47.5802,101.986,47.0899,101.864,46.5502C101.603,45.4049,101.354,44.2596,101.203,43.0977C101.101,42.3315,101.052,41.557,100.987,40.7865C100.864,39.361,100.921,37.9315,100.983,36.506C101.015,35.7315,101.146,34.9693,101.293,34.2071C101.578,32.7405,102.068,31.3397,102.688,29.9843C103.124,29.0285,103.662,28.1262,104.27,27.2652C104.429,27.0386,104.58,26.8038,104.76,26.5936C105.151,26.1322,105.547,25.6831,105.955,25.2382C107.513,23.5244,109.173,21.9176,110.899,20.3727C111.931,19.4498,112.963,18.5229,113.975,17.5794Q116.74,15.0086,119.42,12.3513C120.693,11.0865,121.961,9.8135,123.112,8.42923C123.989,7.37043,124.849,6.29927,125.641,5.17043C125.702,5.08391,125.755,4.99739,125.837,4.86968C125.783,4.8683,125.735,4.86599,125.69,4.86384L125.69,4.86384C125.601,4.85959,125.525,4.85596,125.449,4.86144C124.421,4.93148,123.389,4.92324,122.365,5.05507C121.688,5.14571,121.007,5.20338,120.334,5.30226C119.339,5.45058,118.351,5.64009,117.372,5.86256C115.631,6.26219,113.922,6.77305,112.249,7.39103C110.197,8.14908,108.219,9.0678,106.326,10.1637C104.262,11.3584,102.308,12.7098,100.477,14.2423C98.8654,15.5895,97.3644,17.048,95.9856,18.63C94.4804,20.3603,93.1261,22.2101,91.9187,24.1629C91.2007,25.3247,90.5522,26.5236,89.9525,27.7472C89.2591,29.1562,88.684,30.6187,88.1578,32.0978C87.6111,33.6468,87.1625,35.2289,86.8198,36.8397C86.518,38.257,86.261,39.6865,86.1141,41.1326C86.0447,41.8165,85.9917,42.5045,85.9346,43.1925C85.9265,43.2996,85.9265,43.4109,85.9346,43.518C85.9795,44.2184,86.0285,44.9187,86.1223,45.615C86.2487,46.5625,86.4242,47.5019,86.6689,48.4247C87.0972,50.0274,87.6723,51.5764,88.4311,53.0554C88.9328,54.036,89.4835,54.9876,90.1158,55.8858C91.1151,57.3112,92.2736,58.6008,93.5586,59.7749C94.4193,60.5618,95.3696,61.2045,96.3854,61.7566C98.2414,62.7701,100.232,63.3468,102.333,63.5404C103.144,63.6146,103.956,63.6229,104.772,63.5611C105.804,63.4869,106.816,63.3303,107.811,63.0378C108.19,62.9266,108.574,62.836,108.925,62.6423C110.283,61.8966,111.503,60.9697,112.584,59.8532C113.257,59.157,113.864,58.4071,114.395,57.5996C115.321,56.1865,116.002,54.658,116.414,53.0142C116.455,52.7506,116.512,52.4787,116.577,52.182ZM132.339,20.1214C132.535,20.1626,132.727,20.2162,132.93,20.2656C132.922,20.3356,132.922,20.3851,132.91,20.4221C132.498,22.4326,132.082,24.4472,131.666,26.4577C131.613,26.7049,131.556,26.9562,131.511,27.2034C131.47,27.4341,131.527,27.5165,131.743,27.5742C131.837,27.5989,131.931,27.6195,132.025,27.6401C133.828,28.0233,135.631,28.4105,137.434,28.7937C137.736,28.8596,138.042,28.9255,138.348,28.9791C138.556,29.0161,138.633,28.9544,138.682,28.7525C138.69,28.7195,138.69,28.6824,138.698,28.6454C139.004,27.1746,139.31,25.7079,139.612,24.2412C139.783,23.4255,139.955,22.6057,140.118,21.7899C140.195,21.4068,140.151,21.345,139.783,21.2667C137.74,20.8259,135.692,20.3851,133.644,19.9442C133.604,19.936,133.563,19.903,133.51,19.8783C133.518,19.8,133.518,19.73,133.53,19.66C133.705,18.8195,133.881,17.9791,134.052,17.1386C134.325,15.7997,134.599,14.4607,134.88,13.1259C134.978,12.6645,134.901,12.6439,134.521,12.5615C132.416,12.1042,130.312,11.651,128.207,11.1978C128.137,11.1813,128.064,11.169,127.995,11.169C127.88,11.169,127.807,11.2143,127.774,11.3214C127.742,11.4244,127.717,11.5315,127.697,11.6386C127.293,13.5914,126.893,15.5442,126.489,17.497C126.42,17.839,126.347,18.1809,126.281,18.527C126.245,18.7042,126.31,18.8072,126.477,18.8566C126.579,18.8896,126.685,18.9102,126.791,18.9308C128.639,19.3263,130.491,19.7218,132.339,20.1214ZM230.119,24.4268L229.809,24.7069C228.839,24.7481,228.28,24.7811,228.137,24.8017C227.456,24.9294,226.95,25.1642,226.615,25.5062C226.285,25.8522,225.995,26.3796,225.747,27.0882C225.249,28.4642,224.331,31.5541,222.989,36.3537C222.308,38.7762,221.345,42.4058,220.105,47.2466L217.315,58.0777C216.156,62.5436,215.508,65.4028,215.361,66.6552L210.617,66.6552L209.034,62.3335C206.411,55.1938,203.993,48.808,201.782,43.172L200.015,38.6938C199.624,37.6721,199.22,36.5844,198.808,35.4391L190.719,54.8189C189.911,56.7387,188.786,59.5361,187.342,63.211L185.979,66.6552L181.455,66.6552L173.799,30.7466C173.407,28.9091,173.118,27.7103,172.93,27.1459C172.518,25.8316,171.927,25.09,171.164,24.9252C170.813,24.8429,170.005,24.7563,168.745,24.6739L168.435,24.3938L168.435,22.4204L168.777,22.0743C172.436,22.1979,175.206,22.2638,177.087,22.2638C179.318,22.2638,182.585,22.202,186.881,22.0743L187.219,22.3874L187.219,24.3897L186.909,24.6698C185.502,24.7316,184.706,24.7728,184.523,24.7934C183.736,24.8758,183.222,25.0406,182.973,25.2796C182.724,25.5185,182.602,25.9017,182.602,26.4208C182.602,26.9028,182.797,28.2047,183.189,30.3346L184.241,36.0653C184.551,37.7133,185.098,40.3747,185.885,44.0496L187.713,52.5324L191.621,43.0444C192.404,41.1657,193.583,38.3395,195.153,34.5616L198.812,25.6091C199.493,23.9612,200.032,22.5934,200.423,21.5099L203.275,21.5099C205.383,27.5208,209.308,37.7256,215.055,52.1287L220.541,29.9309C220.954,28.1552,221.162,27.0511,221.162,26.6144C221.162,25.6751,220.676,25.1313,219.705,24.987C219.355,24.9252,218.249,24.8305,216.389,24.7069L216.079,24.3938L216.079,22.4204L216.422,22.0743C219.975,22.2226,222.043,22.2844,222.622,22.2638L229.813,22.0743L230.124,22.3874L230.124,24.4268L230.119,24.4268ZM84.8706,66.1281L84.5933,66.4411C80.0042,66.3175,77.2345,66.2516,76.2841,66.2516C72.4823,66.2516,68.9457,66.3134,65.6824,66.4411L65.405,66.1281L65.405,64.1546L65.7151,63.8085L68.4114,63.652C69.5494,63.5902,70.1164,63.1823,70.1164,62.4325C70.1164,61.9958,69.8268,61.0153,69.2476,59.4909L66.7348,52.8868C63.8835,52.8456,60.971,52.825,57.9933,52.825C56.382,52.825,53.9835,52.8456,50.8018,52.8868L49.4393,56.7059C48.4073,59.6063,47.8893,61.4232,47.8893,62.1523C47.8893,62.9475,48.3747,63.4171,49.3455,63.5613C49.884,63.6437,50.9364,63.7302,52.5068,63.8126L52.8169,64.1258L52.8169,66.1281L52.5068,66.4411C48.6847,66.3175,46.225,66.2516,45.1277,66.2516C44.2792,66.2516,42.1826,66.3134,38.8336,66.4411L38.5236,66.1609L38.5236,64.1258L38.8662,63.8126C40.9955,63.6891,42.3009,63.2606,42.7863,62.5273C43.2717,61.798,45.0951,57.4434,48.2564,49.4714L56.3453,29.0288C56.9449,27.4426,57.8546,25.0531,59.0742,21.8602L63.4756,21.8602L79.9063,60.8999C80.5468,62.3831,81.126,63.2153,81.644,63.4048C82.3252,63.6561,83.3083,63.7797,84.5892,63.7797L84.8665,64.1258L84.8665,66.1281L84.8706,66.1281ZM272,66.1281L271.723,66.4411C267.134,66.3175,264.364,66.2516,263.418,66.2516C259.616,66.2516,256.079,66.3134,252.816,66.4411L252.539,66.1281L252.539,64.1546L252.849,63.8085L255.545,63.652C256.683,63.5902,257.25,63.1823,257.25,62.4325C257.25,61.9958,256.96,61.0153,256.381,59.4909L253.868,52.8868C251.017,52.8456,248.105,52.825,245.127,52.825C243.515,52.825,241.117,52.8456,237.935,52.8868L236.573,56.7059C235.541,59.6063,235.023,61.4232,235.023,62.1523C235.023,62.9475,235.508,63.4171,236.479,63.5613C237.017,63.6437,238.07,63.7302,239.64,63.8126L239.95,64.1258L239.95,66.1281L239.64,66.4411C235.818,66.3175,233.358,66.2516,232.261,66.2516C231.413,66.2516,229.316,66.3134,225.967,66.4411L225.657,66.1609L225.657,64.1258L226,63.8126C228.129,63.6891,229.434,63.2606,229.92,62.5273C230.405,61.798,232.229,57.4434,235.39,49.4714L243.479,29.0288C244.078,27.4426,244.988,25.0531,246.208,21.8602L250.609,21.8602L267.04,60.8999C267.68,62.3831,268.259,63.2153,268.777,63.4048C269.459,63.6561,270.442,63.7797,271.723,63.7797L272,64.1258L272,66.1281ZM39.8,22.2673C39.5512,23.8122,39.4166,25.4107,39.3962,27.0587L39.335,32.2868L39.025,32.5999L37.0711,32.5999L36.7284,32.3197C36.6265,29.65,36.5123,28.0845,36.3858,27.6231C36.137,26.7867,35.4762,26.2965,34.4033,26.1523C33.9914,26.0905,32.0456,26.0575,28.5743,26.0575L24.4258,26.0575C24.385,26.7867,24.3646,29.6913,24.3646,34.7628L24.3646,52.5441C24.3646,57.5126,24.4992,60.7467,24.7684,62.2504C24.8704,62.8561,25.2212,63.2433,25.8209,63.4081C26.1309,63.4905,27.3383,63.5976,29.4472,63.7212L29.7572,64.0343L29.7572,66.1313L29.4472,66.4444C27.3995,66.3208,24.2178,66.2549,19.898,66.2549C15.4762,66.2549,12.2945,66.3167,10.3487,66.4444L10.0714,66.1643L10.0714,64.0343L10.3814,63.7212C12.4903,63.5976,13.6977,63.4905,14.0077,63.4081C14.6073,63.2433,14.9581,62.8561,15.0601,62.2504C15.3293,60.7467,15.464,57.5126,15.464,52.5441L15.464,34.7586C15.464,29.6047,15.4313,26.7044,15.3701,26.0534L10.9443,26.0534C7.24452,26.0534,5.08667,26.1688,4.46664,26.3995C4.13623,26.5231,3.9078,26.6796,3.78543,26.8692C3.59779,27.2029,3.44278,27.8703,3.32041,28.8714C3.17764,29.9755,3.08382,31.1167,3.04303,32.2826L2.73301,32.5957L0.775034,32.5957L0.432388,32.2826L0.371201,26.9309C0.350807,25.4272,0.228432,23.874,0,22.2673L0.277381,21.9542C1.49704,22.1643,5.9392,22.2673,13.608,22.2673L26.1635,22.2673C33.2326,22.2673,37.6748,22.1643,39.4941,21.9542L39.8,22.2673ZM122.37,35.5997C122.382,35.5337,122.414,35.4678,122.443,35.3936C122.561,35.4101,122.667,35.4225,122.769,35.4513C124.385,35.8015,125.996,36.1558,127.611,36.506C128.031,36.5966,128.451,36.6873,128.876,36.7656C129.067,36.8027,129.145,36.745,129.194,36.5637C129.214,36.4813,129.235,36.3989,129.251,36.3165C129.679,34.2195,130.112,32.1266,130.544,30.0296C130.589,29.8195,130.634,29.6053,130.67,29.391C130.699,29.2468,130.646,29.1562,130.511,29.1068C130.43,29.0779,130.348,29.0614,130.267,29.045C129.316,28.839,128.37,28.633,127.423,28.427C126.277,28.1757,125.131,27.9285,123.985,27.6813C123.614,27.5989,123.544,27.6442,123.467,28.015C123.308,28.7607,123.157,29.5064,123.006,30.2521C122.712,31.6858,122.423,33.1154,122.125,34.5491C122.108,34.6356,122.068,34.7221,122.035,34.8128C121.909,34.7922,121.803,34.7798,121.696,34.7592C119.73,34.339,117.764,33.9146,115.798,33.4944C115.366,33.3996,115.325,33.4532,115.239,33.8652C114.844,35.785,114.44,37.7008,114.04,39.6165C113.958,40.0079,113.873,40.3993,113.803,40.7907C113.763,41.0214,113.824,41.1038,114.044,41.1573C114.289,41.215,114.538,41.2603,114.782,41.3139C116.304,41.6394,117.825,41.9689,119.347,42.2944C119.779,42.385,120.212,42.4839,120.648,42.5663C120.856,42.6075,120.942,42.5498,120.987,42.348C121.04,42.1131,121.085,41.8742,121.134,41.6394C121.546,39.6247,121.958,37.6142,122.37,35.5997ZM147.297,34.4955C147.256,34.0011,147.211,33.5068,147.179,33.0124C147.166,32.8187,147.089,32.6704,146.946,32.5427C146.608,32.242,146.22,32.0277,145.804,31.8753C145.237,31.6693,144.654,31.6693,144.066,31.764C143.732,31.8176,143.41,31.9124,143.124,32.0978C142.74,32.345,142.357,32.5921,142.006,32.8888C141.325,33.4697,140.725,34.1289,140.256,34.8952C139.547,36.0528,139.082,37.2929,138.955,38.6607C138.878,39.5094,138.906,40.3498,139.065,41.1861C139.098,41.3468,139.171,41.4787,139.29,41.5858C139.759,42.0143,140.305,42.2532,140.946,42.2738C141.325,42.2862,141.684,42.1996,142.039,42.0967C142.912,41.8454,143.707,41.4375,144.446,40.906C145.127,40.4157,145.682,39.7978,146.179,39.1303C146.391,38.8461,146.506,38.5124,146.628,38.1869C147.077,37.0004,147.285,35.7686,147.297,34.4955ZM65.2215,49.286L58.5888,32.8808L52.2335,49.286C53.9264,49.3478,56.1291,49.3808,58.8376,49.3808C61.4565,49.3808,63.5858,49.3478,65.2215,49.286ZM252.347,49.286L245.714,32.8808L239.359,49.286C241.052,49.3478,243.254,49.3808,245.963,49.3808C248.586,49.3808,250.715,49.3478,252.347,49.286Z"></path></g></svg>